<svg width="96" height="96" xmlns="http://www.w3.org/2000/svg" xmlns:xlink="http://www.w3.org/1999/xlink" xml:space="preserve" overflow="hidden"><g transform="translate(-592 -312)"><path d="M626 380C623.42 380.12 620.43 381.34 617.41 383.06 617.52 380.51 617.67 377.34 617.81 375.19L619.49 375.19C621.979 375.185 623.995 373.168 624 370.68L624 368C623.927 367.042 623.091 366.324 622.133 366.397 621.276 366.462 620.595 367.143 620.53 368L620.53 370.68C620.53 371.232 620.082 371.68 619.53 371.68L618 371.68C618.06 370.26 618.1 368.93 618.1 367.86 618.1 362.86 617.35 354.68 617.35 354.68 617.35 353.562 616.443 352.655 615.325 352.655 614.207 352.655 613.3 353.562 613.3 354.68 613.3 354.68 612.58 362.47 612.55 367.51L611.55 367.51C610.998 367.51 610.55 367.062 610.55 366.51L610.55 362C610.55 361.02 609.755 360.225 608.775 360.225 607.795 360.225 607 361.02 607 362L607 366.53C607.022 369.005 609.035 371 611.51 371L612.63 371C612.79 375 613.18 382.42 613.34 385.63 608.588 389.047 604.126 392.849 600 397L651.09 397C651.09 397 634.11 379.61 626 380Z"/><path d="M671.51 391.07C671.64 389.67 671.94 386.26 672.06 383.54L672.93 383.54C674.73 383.649 676.282 382.289 676.41 380.49L676.41 375.58C676.319 374.84 675.646 374.313 674.906 374.404 674.29 374.479 673.805 374.964 673.73 375.58L673.73 380.49C673.703 380.906 673.346 381.223 672.93 381.2L672.12 381.2C672.12 377.79 671.54 372.53 671.54 372.53 671.471 371.666 670.714 371.021 669.85 371.09 669.081 371.152 668.471 371.762 668.41 372.53L668.5 389.2C665.021 387.047 661.365 385.197 657.57 383.67 657.9 379.61 658.57 370.31 658.91 362.88L661 362.88C665.687 362.875 669.484 359.077 669.49 354.39L669.49 340.67C669.39 338.867 667.847 337.486 666.044 337.586 664.38 337.678 663.052 339.006 662.96 340.67L662.96 354.39C662.96 355.495 662.065 356.39 660.96 356.39L658.96 356.39C658.9 346.88 657.55 332.23 657.55 332.23 657.55 330.126 655.844 328.42 653.74 328.42 651.636 328.42 649.93 330.126 649.93 332.23 649.93 332.23 648.6 347.53 648.6 357 648.6 359 648.68 361.51 648.8 364.19L646 364.19C644.895 364.19 644 363.295 644 362.19L644 353.74C644.1 351.937 642.719 350.394 640.916 350.294 639.113 350.194 637.57 351.575 637.47 353.379 637.463 353.499 637.463 353.62 637.47 353.74L637.47 362.23C637.476 366.924 641.286 370.725 645.98 370.72 645.987 370.72 645.993 370.72 646 370.72L649.17 370.72C649.44 375.17 649.76 379.46 649.98 382.31 647.359 382.721 644.885 383.791 642.79 385.42 646.451 388.375 649.937 391.54 653.23 394.9L655.28 397 679.28 397C679.89 397 676.39 394.22 671.51 391.07Z"/><path d="M608 333 613 333 613 335 608 335Z"/><path d="M614.84 329.34 611.36 325.79 612.78 324.34 616.25 327.89 614.84 329.34Z"/><path d="M627 334.12C627 337.434 624.314 340.12 621 340.12 617.686 340.12 615 337.434 615 334.12 615 330.806 617.686 328.12 621 328.12 624.314 328.12 627 330.806 627 334.12Z"/><path d="M620 321 622 321 622 326 620 326Z"/><path d="M629 333 634 333 634 335 629 335Z"/><path d="M627.16 329.34 630.64 325.79 629.22 324.34 625.75 327.89 627.16 329.34Z"/><path d="M614.84 338.77 611.36 342.33 612.78 343.77 616.25 340.22 614.84 338.77Z"/><path d="M620 342.12 622 342.12 622 347.12 620 347.12Z"/><path d="M627.16 338.77 630.64 342.33 629.22 343.77 625.75 340.22 627.16 338.77Z"/></g></svg>